<svg width="171" height="54" viewBox="0 0 171 54" fill="none" xmlns="http://www.w3.org/2000/svg">
<path d="M170.05 47.7724C170.05 50.6501 167.873 52.9811 165.18 52.9811H5.82576C3.13448 52.9811 0.949951 50.6501 0.949951 47.7724V6.2344C0.949951 3.35803 3.13448 1.01886 5.82576 1.01886H165.179C167.873 1.01886 170.049 3.35803 170.049 6.2344L170.05 47.7724Z" fill="white"/>
<path d="M164.667 1.08169C167.599 1.08169 169.985 3.62476 169.985 6.75001V47.25C169.985 50.3753 167.599 52.9183 164.667 52.9183H6.33333C3.401 52.9183 1.01492 50.3753 1.01492 47.25V6.75001C1.01492 3.62476 3.401 1.08169 6.33333 1.08169H164.667ZM164.667 7.62939e-06H6.33333C2.85158 7.62939e-06 0 3.0392 0 6.75001V47.25C0 50.9608 2.85158 54 6.33333 54H164.667C168.148 54 171 50.9608 171 47.25V6.75001C171 3.0392 168.148 7.62939e-06 164.667 7.62939e-06Z" fill="#A6A6A6"/>
<path d="M38.1622 26.7084C38.1254 22.3573 41.5049 20.2405 41.6594 20.142C39.7455 17.1679 36.779 16.7616 35.7365 16.7292C33.245 16.4497 30.8282 18.3181 29.559 18.3181C28.2644 18.3181 26.31 16.7562 24.2035 16.8021C21.4928 16.8466 18.957 18.5193 17.5662 21.1167C14.6959 26.4127 16.8366 34.1955 19.5865 38.4763C20.9621 40.5729 22.5695 42.9138 24.6734 42.8314C26.7318 42.741 27.5006 41.4328 29.9846 41.4328C32.4457 41.4328 33.1677 42.8314 35.3134 42.7788C37.5225 42.741 38.9133 40.6728 40.2408 38.5573C41.8304 36.1543 42.4688 33.7878 42.4942 33.6663C42.4422 33.6474 38.204 31.9234 38.1622 26.7084Z" fill="black"/>
<path d="M34.1088 13.9131C35.2159 12.4375 35.9734 10.4301 35.7631 8.39294C34.1608 8.46854 32.1569 9.57419 31.003 11.0173C29.982 12.289 29.07 14.3734 29.3056 16.3336C31.1056 16.4767 32.9536 15.3657 34.1088 13.9131Z" fill="black"/>
<path d="M62.1301 13.5121C62.1301 15.1011 61.6829 16.2972 60.7899 17.1004C59.9628 17.8416 58.7873 18.2128 57.2648 18.2128C56.5099 18.2128 55.8639 18.1777 55.323 18.1075V9.42567C56.0285 9.30417 56.7885 9.24207 57.6093 9.24207C59.0597 9.24207 60.1528 9.57822 60.89 10.2505C61.7159 11.0106 62.1301 12.0973 62.1301 13.5121ZM60.7304 13.5513C60.7304 12.5212 60.4745 11.7315 59.9628 11.1807C59.4511 10.6312 58.7037 10.3558 57.7195 10.3558C57.3015 10.3558 56.9456 10.3855 56.6505 10.4476V17.0478C56.8139 17.0748 57.1128 17.0869 57.5473 17.0869C58.5631 17.0869 59.3472 16.7859 59.8995 16.1838C60.4517 15.5817 60.7304 14.7042 60.7304 13.5513Z" fill="black"/>
<path d="M69.5515 14.9C69.5515 15.8787 69.2892 16.6806 68.7648 17.3097C68.2151 17.9564 67.4868 18.279 66.5773 18.279C65.7008 18.279 65.0029 17.9699 64.4822 17.3489C63.9629 16.7292 63.7032 15.9476 63.7032 15.0053C63.7032 14.0198 63.9705 13.2111 64.5076 12.5834C65.0446 11.9556 65.7666 11.6411 66.6761 11.6411C67.5527 11.6411 68.2569 11.9502 68.7902 12.5699C69.2969 13.172 69.5515 13.9496 69.5515 14.9ZM68.1746 14.9459C68.1746 14.3586 68.0555 13.8551 67.8187 13.4352C67.54 12.9276 67.1435 12.6738 66.628 12.6738C66.0947 12.6738 65.6894 12.9276 65.4107 13.4352C65.1726 13.8551 65.0548 14.3667 65.0548 14.9715C65.0548 15.5588 65.1738 16.0623 65.4107 16.4822C65.6982 16.9898 66.0985 17.2436 66.6153 17.2436C67.122 17.2436 67.5197 16.9857 67.806 16.4687C68.0517 16.0407 68.1746 15.5331 68.1746 14.9459Z" fill="black"/>
<path d="M79.5024 11.7706L77.6341 18.1345H76.4181L75.6441 15.3711C75.4478 14.6812 75.2882 13.9954 75.1641 13.315H75.14C75.0247 14.0143 74.8651 14.6988 74.6599 15.3711L73.8379 18.1345H72.6079L70.8511 11.7706H72.2153L72.8904 14.796C73.0538 15.5115 73.1881 16.1932 73.2957 16.8385H73.3198C73.4186 16.3066 73.582 15.6289 73.8125 14.8095L74.6599 11.772H75.7417L76.5536 14.7447C76.7499 15.4696 76.9095 16.1676 77.0324 16.8399H77.0691C77.1591 16.1851 77.2946 15.4872 77.4745 14.7447L78.199 11.772H79.5024V11.7706Z" fill="black"/>
<path d="M86.3842 18.1346H85.0568V14.4896C85.0568 13.3664 84.6565 12.8048 83.8534 12.8048C83.4595 12.8048 83.1416 12.9587 82.8946 13.2678C82.6501 13.577 82.526 13.9415 82.526 14.3586V18.1332H81.1985V13.5891C81.1985 13.0302 81.1821 12.4241 81.1504 11.768H82.317L82.3791 12.7629H82.4158C82.5703 12.4538 82.8009 12.1986 83.1036 11.9948C83.4633 11.7572 83.8661 11.637 84.3069 11.637C84.8642 11.637 85.3278 11.8287 85.6964 12.2135C86.155 12.6846 86.3842 13.388 86.3842 14.3222V18.1346Z" fill="black"/>
<path d="M90.0448 18.1345H88.7186V8.85059H90.0448V18.1345Z" fill="black"/>
<path d="M97.8602 14.9C97.8602 15.8787 97.598 16.6806 97.0736 17.3097C96.5238 17.9564 95.7942 18.279 94.886 18.279C94.0082 18.279 93.3103 17.9699 92.791 17.3489C92.2716 16.7292 92.012 15.9476 92.012 15.0053C92.012 14.0198 92.2792 13.2111 92.8163 12.5834C93.3534 11.9556 94.0754 11.6411 94.9836 11.6411C95.8614 11.6411 96.5644 11.9502 97.0989 12.5699C97.6056 13.172 97.8602 13.9496 97.8602 14.9ZM96.482 14.9459C96.482 14.3586 96.363 13.8551 96.1261 13.4352C95.8487 12.9276 95.451 12.6738 94.9367 12.6738C94.4022 12.6738 93.9968 12.9276 93.7194 13.4352C93.4813 13.8551 93.3635 14.3667 93.3635 14.9715C93.3635 15.5588 93.4826 16.0623 93.7194 16.4822C94.007 16.9898 94.4072 17.2436 94.924 17.2436C95.4307 17.2436 95.8272 16.9857 96.1134 16.4687C96.3604 16.0407 96.482 15.5331 96.482 14.9459Z" fill="black"/>
<path d="M104.285 18.1346H103.093L102.994 17.4015H102.957C102.549 17.9861 101.968 18.279 101.213 18.279C100.649 18.279 100.193 18.086 99.8501 17.7026C99.5385 17.3543 99.3827 16.9209 99.3827 16.4066C99.3827 15.629 99.6867 15.0363 100.298 14.6259C100.909 14.2155 101.768 14.0144 102.874 14.0238V13.905C102.874 13.0667 102.461 12.6482 101.634 12.6482C101.045 12.6482 100.525 12.8061 100.077 13.1193L99.807 12.1905C100.362 11.8247 101.047 11.6411 101.855 11.6411C103.416 11.6411 104.199 12.5186 104.199 14.2736V16.6172C104.199 17.253 104.228 17.7593 104.285 18.1346ZM102.907 15.9476V14.9661C101.442 14.9391 100.71 15.3671 100.71 16.2486C100.71 16.5807 100.794 16.8291 100.965 16.9952C101.136 17.1612 101.354 17.2436 101.613 17.2436C101.905 17.2436 102.177 17.145 102.425 16.9493C102.675 16.7522 102.828 16.5024 102.885 16.196C102.899 16.1271 102.907 16.0434 102.907 15.9476Z" fill="black"/>
<path d="M111.828 18.1345H110.65L110.588 17.1126H110.551C110.175 17.8902 109.534 18.279 108.633 18.279C107.914 18.279 107.315 17.9779 106.84 17.3758C106.365 16.7737 106.128 15.9921 106.128 15.0322C106.128 14.0022 106.385 13.1679 106.902 12.5307C107.402 11.9367 108.015 11.6397 108.745 11.6397C109.547 11.6397 110.108 11.9272 110.427 12.5037H110.452V8.85059H111.781V16.42C111.781 17.0397 111.796 17.6107 111.828 18.1345ZM110.452 15.4507V14.3896C110.452 14.206 110.44 14.0575 110.415 13.9441C110.341 13.6039 110.18 13.3177 109.935 13.0869C109.688 12.856 109.391 12.7399 109.047 12.7399C108.552 12.7399 108.165 12.9492 107.88 13.369C107.597 13.7889 107.454 14.3248 107.454 14.9796C107.454 15.6087 107.59 16.119 107.862 16.5118C108.149 16.9303 108.537 17.1396 109.022 17.1396C109.458 17.1396 109.806 16.9654 110.071 16.6158C110.327 16.2931 110.452 15.9043 110.452 15.4507Z" fill="black"/>
<path d="M123.181 14.9C123.181 15.8787 122.919 16.6806 122.394 17.3097C121.845 17.9564 121.117 18.279 120.207 18.279C119.331 18.279 118.634 17.9699 118.112 17.3489C117.592 16.7292 117.333 15.9476 117.333 15.0053C117.333 14.0198 117.6 13.2111 118.137 12.5834C118.674 11.9556 119.396 11.6411 120.307 11.6411C121.182 11.6411 121.888 11.9502 122.42 12.5699C122.926 13.172 123.181 13.9496 123.181 14.9ZM121.805 14.9459C121.805 14.3586 121.686 13.8551 121.449 13.4352C121.169 12.9276 120.774 12.6738 120.257 12.6738C119.725 12.6738 119.32 12.9276 119.04 13.4352C118.802 13.8551 118.684 14.3667 118.684 14.9715C118.684 15.5588 118.803 16.0623 119.04 16.4822C119.328 16.9898 119.728 17.2436 120.245 17.2436C120.751 17.2436 121.15 16.9857 121.437 16.4687C121.681 16.0407 121.805 15.5331 121.805 14.9459Z" fill="black"/>
<path d="M130.319 18.1346H128.992V14.4896C128.992 13.3664 128.592 12.8048 127.788 12.8048C127.394 12.8048 127.076 12.9587 126.83 13.2678C126.584 13.577 126.462 13.9415 126.462 14.3586V18.1332H125.133V13.5891C125.133 13.0302 125.118 12.4241 125.086 11.768H126.251L126.313 12.7629H126.35C126.506 12.4538 126.736 12.1986 127.038 11.9948C127.399 11.7572 127.8 11.637 128.242 11.637C128.799 11.637 129.262 11.8287 129.631 12.2135C130.091 12.6846 130.319 13.388 130.319 14.3222V18.1346Z" fill="black"/>
<path d="M139.252 12.8304H137.791V15.9219C137.791 16.7076 138.05 17.1004 138.565 17.1004C138.803 17.1004 139 17.0788 139.156 17.0343L139.19 18.1075C138.928 18.2128 138.584 18.2655 138.159 18.2655C137.635 18.2655 137.227 18.0954 136.932 17.7552C136.635 17.415 136.488 16.8426 136.488 16.0393V12.8304H135.616V11.7706H136.488V10.6042L137.789 10.1857V11.7693H139.251V12.8304H139.252Z" fill="black"/>
<path d="M146.28 18.1345H144.951V14.5165C144.951 13.3758 144.551 12.8047 143.749 12.8047C143.133 12.8047 142.713 13.1355 142.482 13.797C142.443 13.936 142.42 14.1061 142.42 14.3059V18.1332H141.094V8.85059H142.42V12.6859H142.446C142.864 11.988 143.463 11.6397 144.239 11.6397C144.789 11.6397 145.244 11.8314 145.605 12.2161C146.054 12.6954 146.28 13.4082 146.28 14.3505V18.1345Z" fill="black"/>
<path d="M153.529 14.6516C153.529 14.9054 153.511 15.1187 153.48 15.2928H149.498C149.516 15.9219 149.706 16.4012 150.075 16.7333C150.412 17.0303 150.846 17.1788 151.378 17.1788C151.967 17.1788 152.504 17.0789 152.988 16.8777L153.196 17.8605C152.63 18.1224 151.963 18.2534 151.192 18.2534C150.267 18.2534 149.539 17.9631 149.012 17.3826C148.483 16.8021 148.22 16.0232 148.22 15.0458C148.22 14.0859 148.465 13.2867 148.958 12.6495C149.472 11.9691 150.167 11.6289 151.045 11.6289C151.904 11.6289 152.556 11.9691 152.997 12.6495C153.353 13.1895 153.529 13.8578 153.529 14.6516ZM152.262 14.2857C152.272 13.8659 152.185 13.5041 152.005 13.199C151.775 12.8061 151.424 12.609 150.949 12.609C150.516 12.609 150.162 12.8007 149.892 13.1855C149.672 13.4919 149.541 13.8578 149.498 14.2857H152.262Z" fill="black"/>
<path d="M67.9504 42.5304H65.0738L63.498 37.2532H58.021L56.52 42.5304H53.7194L59.1458 24.5646H62.4974L67.9504 42.5304ZM63.023 35.0392L61.598 30.348C61.4473 29.8687 61.1648 28.7401 60.7481 26.9635H60.6974C60.5315 27.7276 60.2642 28.8562 59.8969 30.348L58.4972 35.0392H63.023Z" fill="black"/>
<path d="M81.9052 35.8938C81.9052 38.097 81.3466 39.8385 80.2294 41.1169C79.2287 42.255 77.9861 42.8233 76.5029 42.8233C74.9018 42.8233 73.7517 42.2104 73.0512 40.9846H73.0005V47.8089H70.3V33.8404C70.3 32.4553 70.2658 31.0338 70.2 29.5758H72.575L72.7257 31.6291H72.7764C73.677 30.082 75.0437 29.3098 76.8778 29.3098C78.3117 29.3098 79.5087 29.9133 80.4663 31.1215C81.4264 32.3311 81.9052 33.9214 81.9052 35.8938ZM79.154 35.9991C79.154 34.7382 78.888 33.6987 78.3535 32.8806C77.7695 32.0274 76.9855 31.6008 76.0025 31.6008C75.3363 31.6008 74.7308 31.8384 74.1899 32.3068C73.6478 32.7793 73.2931 33.3963 73.1272 34.1604C73.0436 34.5168 73.0018 34.8084 73.0018 35.0379V37.1979C73.0018 38.1402 73.2729 38.9353 73.815 39.5847C74.3571 40.234 75.0614 40.558 75.9278 40.558C76.9449 40.558 77.7366 40.1395 78.3028 39.3052C78.8703 38.4696 79.154 37.368 79.154 35.9991Z" fill="black"/>
<path d="M95.8854 35.8938C95.8854 38.097 95.3268 39.8385 94.2083 41.1169C93.2089 42.255 91.9663 42.8233 90.4831 42.8233C88.882 42.8233 87.7319 42.2104 87.0327 40.9846H86.982V47.8089H84.2815V33.8404C84.2815 32.4553 84.2473 31.0338 84.1814 29.5758H86.5564L86.7071 31.6291H86.7578C87.6571 30.082 89.0239 29.3098 90.8593 29.3098C92.2919 29.3098 93.4889 29.9133 94.449 31.1215C95.4053 32.3311 95.8854 33.9214 95.8854 35.8938ZM93.1342 35.9991C93.1342 34.7382 92.8669 33.6987 92.3324 32.8806C91.7485 32.0274 90.9669 31.6008 89.9827 31.6008C89.3152 31.6008 88.711 31.8384 88.1689 32.3068C87.6267 32.7793 87.2733 33.3963 87.1074 34.1604C87.0251 34.5168 86.982 34.8084 86.982 35.0379V37.1979C86.982 38.1402 87.2531 38.9353 87.7927 39.5847C88.3348 40.2327 89.0391 40.558 89.908 40.558C90.9251 40.558 91.7168 40.1395 92.283 39.3052C92.8505 38.4696 93.1342 37.368 93.1342 35.9991Z" fill="black"/>
<path d="M111.516 37.4922C111.516 39.0204 111.018 40.2637 110.019 41.2236C108.921 42.2725 107.392 42.7963 105.427 42.7963C103.613 42.7963 102.159 42.4237 101.058 41.6772L101.684 39.2782C102.87 40.0423 104.171 40.4257 105.588 40.4257C106.605 40.4257 107.397 40.18 107.966 39.6913C108.532 39.2026 108.814 38.5465 108.814 37.7284C108.814 36.9994 108.581 36.3852 108.114 35.887C107.649 35.3889 106.872 34.9258 105.788 34.4979C102.837 33.3247 101.362 31.6062 101.362 29.3463C101.362 27.8694 101.879 26.6584 102.914 25.7161C103.945 24.7725 105.321 24.3013 107.041 24.3013C108.575 24.3013 109.849 24.5862 110.866 25.1545L110.191 27.5008C109.241 26.95 108.167 26.6746 106.965 26.6746C106.015 26.6746 105.273 26.9244 104.741 27.4212C104.291 27.8653 104.066 28.4067 104.066 29.0479C104.066 29.758 104.323 30.3453 104.839 30.807C105.289 31.2336 106.106 31.6953 107.292 32.1934C108.742 32.8158 109.807 33.5434 110.493 34.3777C111.175 35.2093 111.516 36.2502 111.516 37.4922Z" fill="black"/>
<path d="M120.445 31.7357H117.468V38.0254C117.468 39.6252 117.993 40.4244 119.044 40.4244C119.527 40.4244 119.927 40.3798 120.243 40.2907L120.318 42.4764C119.786 42.6883 119.086 42.795 118.218 42.795C117.152 42.795 116.318 42.448 115.716 41.7555C115.117 41.0616 114.816 39.8979 114.816 38.263V31.7331H113.042V29.5731H114.816V27.2011L117.468 26.3479V29.5731H120.445V31.7357Z" fill="black"/>
<path d="M133.875 35.9464C133.875 37.9377 133.341 39.5725 132.274 40.851C131.156 42.1672 129.671 42.8233 127.821 42.8233C126.037 42.8233 124.617 42.1929 123.558 40.932C122.499 39.6711 121.97 38.0794 121.97 36.1611C121.97 34.1536 122.515 32.5093 123.608 31.2309C124.698 29.9511 126.17 29.3112 128.021 29.3112C129.804 29.3112 131.239 29.9416 132.322 31.2039C133.358 32.4283 133.875 34.0092 133.875 35.9464ZM131.073 36.0396C131.073 34.8448 130.834 33.8202 130.349 32.9656C129.783 31.9315 128.973 31.4158 127.924 31.4158C126.839 31.4158 126.014 31.9329 125.448 32.9656C124.963 33.8215 124.724 34.8624 124.724 36.0936C124.724 37.2883 124.963 38.313 125.448 39.1662C126.032 40.2003 126.848 40.716 127.9 40.716C128.931 40.716 129.741 40.1895 130.325 39.1392C130.823 38.2684 131.073 37.233 131.073 36.0396Z" fill="black"/>
<path d="M142.653 32.107C142.386 32.0544 142.101 32.0274 141.802 32.0274C140.852 32.0274 140.117 32.4094 139.601 33.1749C139.151 33.8499 138.925 34.7031 138.925 35.7331V42.5304H136.226L136.251 33.6555C136.251 32.1624 136.217 30.8029 136.15 29.5771H138.502L138.601 32.0557H138.676C138.961 31.2039 139.411 30.5181 140.026 30.0037C140.628 29.5407 141.278 29.3098 141.978 29.3098C142.228 29.3098 142.453 29.3287 142.653 29.3625V32.107Z" fill="black"/>
<path d="M154.731 35.4402C154.731 35.9559 154.699 36.3906 154.632 36.7456H146.531C146.562 38.0254 146.954 39.0042 147.706 39.6792C148.389 40.2826 149.272 40.585 150.356 40.585C151.555 40.585 152.65 40.3812 153.634 39.9721L154.057 41.9701C152.907 42.5047 151.549 42.7707 149.982 42.7707C148.097 42.7707 146.618 42.1794 145.541 40.9981C144.467 39.8169 143.929 38.2306 143.929 36.2407C143.929 34.2873 144.429 32.6605 145.431 31.3632C146.48 29.9781 147.897 29.2855 149.681 29.2855C151.433 29.2855 152.759 29.9781 153.659 31.3632C154.372 32.4634 154.731 33.8242 154.731 35.4402ZM152.156 34.6936C152.174 33.8404 151.997 33.1033 151.631 32.481C151.164 31.6804 150.446 31.2808 149.479 31.2808C148.597 31.2808 147.878 31.671 147.33 32.454C146.88 33.0763 146.613 33.8229 146.531 34.6923H152.156V34.6936Z" fill="black"/>
</svg>
