<svg width="171" height="54" viewBox="0 0 171 54" fill="none" xmlns="http://www.w3.org/2000/svg">
<path d="M164.667 54H6.33333C2.85158 54 0 50.9608 0 47.25V6.75C0 3.03919 2.85158 -9.53674e-07 6.33333 -9.53674e-07H164.667C168.148 -9.53674e-07 171 3.03919 171 6.75V47.25C171 50.9608 168.148 54 164.667 54Z" fill="white"/>
<path d="M164.667 1.08169C167.599 1.08169 169.985 3.62475 169.985 6.75V47.25C169.985 50.3752 167.599 52.9183 164.667 52.9183H6.33333C3.401 52.9183 1.01492 50.3752 1.01492 47.25V6.75C1.01492 3.62475 3.401 1.08169 6.33333 1.08169H164.667ZM164.667 -9.53674e-07H6.33333C2.85158 -9.53674e-07 0 3.03919 0 6.75V47.25C0 50.9608 2.85158 54 6.33333 54H164.667C168.148 54 171 50.9608 171 47.25V6.75C171 3.03919 168.148 -9.53674e-07 164.667 -9.53674e-07Z" fill="#A6A6A6"/>
<path d="M13.2177 10.1773C12.8456 10.5925 12.6302 11.2388 12.6302 12.0758V41.931C12.6302 42.768 12.8456 43.4143 13.2177 43.8295L13.3095 43.9206L29.0067 27.1975V26.8026L13.3095 10.0795L13.2177 10.1773Z" fill="url(#paint0_linear_1984_458)"/>
<path d="M34.2332 32.7747L29.0066 27.1975V26.8026L34.2395 21.2254L34.3567 21.298L40.5538 25.056C42.3224 26.1225 42.3224 27.8775 40.5538 28.9508L34.3567 32.7021L34.2332 32.7747Z" fill="url(#paint1_linear_1984_458)"/>
<path d="M34.3567 32.7021L29.0066 27L13.2177 43.8295C13.8051 44.4876 14.763 44.5669 15.8523 43.9088L34.3567 32.7021Z" fill="url(#paint2_linear_1984_458)"/>
<path d="M34.3567 21.2979L15.8523 10.0913C14.763 9.43988 13.8051 9.51919 13.2177 10.1773L29.0066 27L34.3567 21.2979Z" fill="url(#paint3_linear_1984_458)"/>
<path d="M60.0622 13.8291C60.0622 14.9563 59.7456 15.8591 59.1217 16.5324C58.4045 17.3306 57.4703 17.7323 56.3256 17.7323C55.2315 17.7323 54.2973 17.3239 53.531 16.5189C52.763 15.7022 52.3799 14.6998 52.3799 13.5C52.3799 12.3002 52.763 11.2978 53.531 10.4878C54.2973 9.67614 55.2315 9.26776 56.3256 9.26776C56.8702 9.26776 57.3895 9.38757 57.8851 9.61032C58.3791 9.83476 58.7813 10.1385 59.0726 10.5131L58.4108 11.2253C57.9025 10.5857 57.2106 10.2701 56.3256 10.2701C55.5276 10.2701 54.8356 10.5671 54.2482 11.1662C53.6671 11.7669 53.3758 12.5449 53.3758 13.5C53.3758 14.4551 53.6671 15.2398 54.2482 15.8406C54.8356 16.4329 55.5276 16.7366 56.3256 16.7366C57.1726 16.7366 57.8851 16.4329 58.4472 15.8338C58.8177 15.4373 59.0283 14.8905 59.0837 14.1919H56.3256V13.2165H60.0052C60.0495 13.4274 60.0622 13.6316 60.0622 13.8291Z" fill="black" stroke="black" stroke-width="0.16" stroke-miterlimit="10"/>
<path d="M65.9 10.4473H62.4436V13.0123H65.5596V13.9877H62.4436V16.5527H65.9V17.5466H61.4651V9.45337H65.9V10.4473Z" fill="black" stroke="black" stroke-width="0.16" stroke-miterlimit="10"/>
<path d="M70.0197 17.5466H69.0412V10.4473H66.9211V9.45337H72.1414V10.4473H70.0197V17.5466Z" fill="black" stroke="black" stroke-width="0.16" stroke-miterlimit="10"/>
<path d="M75.9193 17.5466V9.45337H76.8962V17.5466H75.9193Z" fill="black" stroke="black" stroke-width="0.16" stroke-miterlimit="10"/>
<path d="M81.2266 17.5466H80.256V10.4473H78.1281V9.45337H83.3546V10.4473H81.2266V17.5466Z" fill="black" stroke="black" stroke-width="0.16" stroke-miterlimit="10"/>
<path d="M93.2378 16.5054C92.4889 17.3239 91.561 17.7323 90.4543 17.7323C89.3412 17.7323 88.4134 17.3239 87.6645 16.5054C86.9171 15.6887 86.545 14.6863 86.545 13.5C86.545 12.3137 86.9171 11.3113 87.6645 10.4946C88.4134 9.67614 89.3412 9.26776 90.4543 9.26776C91.5547 9.26776 92.4826 9.67614 93.2315 10.5013C93.9851 11.3248 94.3572 12.3204 94.3572 13.5C94.3572 14.6863 93.9851 15.6887 93.2378 16.5054ZM88.388 15.8271C88.9517 16.4329 89.6373 16.7366 90.4543 16.7366C91.265 16.7366 91.9569 16.4329 92.5142 15.8271C93.0763 15.2213 93.3613 14.4433 93.3613 13.5C93.3613 12.5567 93.0763 11.7788 92.5142 11.1729C91.9569 10.5671 91.265 10.2634 90.4543 10.2634C89.6373 10.2634 88.9517 10.5671 88.388 11.1729C87.826 11.7788 87.541 12.5567 87.541 13.5C87.541 14.4433 87.826 15.2213 88.388 15.8271Z" fill="black" stroke="black" stroke-width="0.16" stroke-miterlimit="10"/>
<path d="M95.73 17.5466V9.45337H96.9175L100.61 15.7477H100.653L100.61 14.1919V9.45337H101.587V17.5466H100.567L96.7006 10.9417H96.6578L96.7006 12.5044V17.5466H95.73Z" fill="black" stroke="black" stroke-width="0.16" stroke-miterlimit="10"/>
<path d="M86.3043 29.3659C83.3292 29.3659 80.8988 31.779 80.8988 35.1085C80.8988 38.4109 83.3292 40.8493 86.3043 40.8493C89.2857 40.8493 91.7162 38.4109 91.7162 35.1085C91.7162 31.779 89.2857 29.3659 86.3043 29.3659ZM86.3043 38.5881C84.6719 38.5881 83.2675 37.152 83.2675 35.1085C83.2675 33.0379 84.6719 31.6271 86.3043 31.6271C87.9367 31.6271 89.3475 33.0379 89.3475 35.1085C89.3475 37.152 87.9367 38.5881 86.3043 38.5881ZM74.5101 29.3659C71.5287 29.3659 69.1046 31.779 69.1046 35.1085C69.1046 38.4109 71.5287 40.8493 74.5101 40.8493C77.4899 40.8493 79.9156 38.4109 79.9156 35.1085C79.9156 31.779 77.4899 29.3659 74.5101 29.3659ZM74.5101 38.5881C72.8761 38.5881 71.4669 37.152 71.4669 35.1085C71.4669 33.0379 72.8761 31.6271 74.5101 31.6271C76.1425 31.6271 77.5469 33.0379 77.5469 35.1085C77.5469 37.152 76.1425 38.5881 74.5101 38.5881ZM60.4754 31.126V33.5661H65.9427C65.7828 34.9296 65.3553 35.932 64.6998 36.6306C63.9018 37.4743 62.6588 38.4109 60.4754 38.4109C57.1108 38.4109 54.4762 35.5168 54.4762 31.9309C54.4762 28.345 57.1108 25.4509 60.4754 25.4509C62.2947 25.4509 63.6183 26.2086 64.5953 27.1907L66.2087 25.4711C64.8423 24.0806 63.0246 23.0125 60.4754 23.0125C55.8616 23.0125 51.984 27.0135 51.984 31.9309C51.984 36.8483 55.8616 40.8493 60.4754 40.8493C62.9692 40.8493 64.8423 39.9786 66.3148 38.3451C67.8237 36.7369 68.2939 34.4756 68.2939 32.6498C68.2939 32.0828 68.2496 31.5613 68.1704 31.126H60.4754ZM117.865 33.0176C117.42 31.7335 116.047 29.3659 113.251 29.3659C110.48 29.3659 108.173 31.693 108.173 35.1085C108.173 38.3248 110.456 40.8493 113.517 40.8493C115.992 40.8493 117.42 39.2411 118.007 38.3046L116.171 37.0001C115.558 37.9553 114.724 38.5881 113.517 38.5881C112.318 38.5881 111.459 38.0025 110.908 36.8483L118.113 33.6707L117.865 33.0176ZM110.518 34.9296C110.456 32.7156 112.132 31.5816 113.332 31.5816C114.272 31.5816 115.07 32.0828 115.336 32.8L110.518 34.9296ZM104.661 40.5H107.03V23.625H104.661V40.5ZM100.782 30.645H100.703C100.171 29.9734 99.1562 29.3659 97.8706 29.3659C95.1726 29.3659 92.7057 31.8904 92.7057 35.127C92.7057 38.3451 95.1726 40.8493 97.8706 40.8493C99.1562 40.8493 100.171 40.2368 100.703 39.5449H100.782V40.3684C100.782 42.5638 99.6819 43.7434 97.907 43.7434C96.4598 43.7434 95.5621 42.6296 95.1916 41.6931L93.1317 42.6094C93.7254 44.1315 95.2977 46.0046 97.907 46.0046C100.684 46.0046 103.027 44.2631 103.027 40.0258V29.7152H100.782V30.645ZM98.0732 38.5881C96.4408 38.5881 95.0744 37.1318 95.0744 35.127C95.0744 33.1037 96.4408 31.6271 98.0732 31.6271C99.6819 31.6271 100.95 33.1037 100.95 35.127C100.95 37.1318 99.6819 38.5881 98.0732 38.5881ZM128.955 23.625H123.289V40.5H125.652V34.1061H128.955C131.578 34.1061 134.151 32.0828 134.151 28.8647C134.151 25.6483 131.572 23.625 128.955 23.625ZM129.016 31.7588H125.652V25.9723H129.016C130.78 25.9723 131.787 27.5333 131.787 28.8647C131.787 30.1708 130.78 31.7588 129.016 31.7588ZM143.619 29.3338C141.913 29.3338 140.138 30.1371 139.408 31.9174L141.504 32.854C141.955 31.9174 142.785 31.6136 143.662 31.6136C144.888 31.6136 146.131 32.3983 146.15 33.7838V33.961C145.722 33.6977 144.807 33.3079 143.681 33.3079C141.423 33.3079 139.123 34.6326 139.123 37.1048C139.123 39.366 140.972 40.8223 143.051 40.8223C144.641 40.8223 145.518 40.0579 146.069 39.1686H146.15V40.473H148.431V33.9998C148.431 31.0078 146.335 29.3338 143.619 29.3338ZM143.334 38.5813C142.562 38.5813 141.485 38.173 141.485 37.152C141.485 35.8459 142.828 35.3447 143.99 35.3447C145.03 35.3447 145.518 35.5894 146.15 35.9117C145.964 37.4743 144.702 38.5813 143.334 38.5813ZM156.744 29.7034L154.028 37.0187H153.947L151.14 29.7034H148.593L152.811 39.9263L150.404 45.6148H152.872L159.372 29.7034H156.744ZM135.449 40.5H137.818V23.625H135.449V40.5Z" fill="black"/>
<defs>
<linearGradient id="paint0_linear_1984_458" x1="27.6129" y1="42.2419" x2="5.00262" y2="21.0273" gradientUnits="userSpaceOnUse">
<stop stop-color="#00A0FF"/>
<stop offset="0.0066" stop-color="#00A1FF"/>
<stop offset="0.2601" stop-color="#00BEFF"/>
<stop offset="0.5122" stop-color="#00D2FF"/>
<stop offset="0.7604" stop-color="#00DFFF"/>
<stop offset="1" stop-color="#00E3FF"/>
</linearGradient>
<linearGradient id="paint1_linear_1984_458" x1="42.8568" y1="26.9981" x2="12.2074" y2="26.9981" gradientUnits="userSpaceOnUse">
<stop stop-color="#FFE000"/>
<stop offset="0.4087" stop-color="#FFBD00"/>
<stop offset="0.7754" stop-color="#FFA500"/>
<stop offset="1" stop-color="#FF9C00"/>
</linearGradient>
<linearGradient id="paint2_linear_1984_458" x1="31.4475" y1="23.9003" x2="0.786075" y2="-4.86846" gradientUnits="userSpaceOnUse">
<stop stop-color="#FF3A44"/>
<stop offset="1" stop-color="#C31162"/>
</linearGradient>
<linearGradient id="paint3_linear_1984_458" x1="9.24323" y1="53.7621" x2="22.9349" y2="40.9157" gradientUnits="userSpaceOnUse">
<stop stop-color="#32A071"/>
<stop offset="0.0685" stop-color="#2DA771"/>
<stop offset="0.4762" stop-color="#15CF74"/>
<stop offset="0.8009" stop-color="#06E775"/>
<stop offset="1" stop-color="#00F076"/>
</linearGradient>
</defs>
</svg>
